<svg width="114" height="63" viewBox="0 0 114 63" fill="none" xmlns="http://www.w3.org/2000/svg">
<path d="M70.2903 2.47171C70.0715 2.64551 69.8875 2.86294 69.721 3.10218C69.3835 3.61986 68.9893 4.11129 68.5776 4.58091L64.9168 0L60.3655 3.61506C60.8191 4.00363 61.2553 4.37039 61.7571 4.685C61.9796 4.82919 62.1977 5.01257 62.3895 5.25252C63.4529 6.58316 63.0468 8.5817 61.4068 9.34944C60.5453 9.74847 59.4794 9.66795 58.6897 9.0827C58.2317 8.73332 57.9223 8.30148 57.7573 7.82636C57.5618 7.26842 57.3007 6.76263 57.0396 6.25683L52.4463 9.90518L56.1071 14.4861C55.556 14.7812 55.0119 14.9994 54.4304 15.2117C53.9538 15.3762 53.5206 15.6847 53.1702 16.1413C52.605 16.9112 52.4849 17.9694 52.9025 18.8501C53.7118 20.4895 55.7165 20.8943 57.0512 19.8341C57.27 19.6603 57.454 19.4428 57.6205 19.2036C57.921 18.7509 58.3103 18.2278 58.722 17.7582L62.3827 22.3391L66.9585 18.6689C66.5049 18.2803 66.0688 17.9136 65.5669 17.599C65.3444 17.4548 65.1263 17.2714 64.9346 17.0315C63.8712 15.7008 64.2772 13.7023 65.9172 12.9345C66.7788 12.5355 67.8447 12.616 68.6343 13.2013C69.0924 13.5507 69.4017 13.9825 69.5668 14.4576C69.7623 15.0156 70.0234 15.5213 70.2845 16.0271L74.8577 12.3947L71.1969 7.8138C71.748 7.51869 72.2947 7.26278 72.8762 7.05049C73.3528 6.88591 73.786 6.57751 74.1364 6.12084C74.7016 5.35097 74.8218 4.29273 74.4216 3.43383C73.6297 1.81624 71.625 1.41153 70.2903 2.47171Z" fill="#616263"/>
<path d="M42.4795 14.4869C42.6539 14.7051 42.8719 14.8885 43.1119 15.0545C43.6312 15.3909 44.1241 15.7839 44.5951 16.1943L40 19.8442L43.626 24.3815C44.0157 23.9292 44.3836 23.4944 44.6992 22.9941C44.8439 22.7722 45.0278 22.5548 45.2685 22.3636C46.6033 21.3034 48.608 21.7081 49.378 23.3431C49.7782 24.202 49.6974 25.2647 49.1103 26.052C48.7598 26.5086 48.3267 26.817 47.8501 26.9816C47.2904 27.1765 46.7831 27.4369 46.2757 27.6972L49.9191 32.2564L54.4923 28.6239C54.7883 29.1733 55.045 29.7183 55.2579 30.2981C55.423 30.7732 55.7323 31.2051 56.1904 31.5544C56.9626 32.1179 58.0241 32.2376 58.9075 31.8212C60.552 31.0142 60.958 29.0157 59.8946 27.685C59.7203 27.4669 59.5022 27.2835 59.2622 27.1175C58.743 26.7811 58.2675 26.4099 57.7965 25.9995L62.383 22.3389L58.7222 17.758C58.3324 18.2102 57.9955 18.6299 57.6708 19.128C57.5262 19.3498 57.3422 19.5673 57.1015 19.7585C55.7667 20.8187 53.7443 20.4812 52.9743 18.8462C52.5741 17.9873 52.6549 16.9246 53.242 16.1374C53.5924 15.6807 54.0256 15.3723 54.5022 15.2077C55.0618 15.0128 55.6 14.7462 56.1073 14.4858L52.4465 9.90488L47.838 13.5828C47.5421 13.0334 47.2854 12.4884 47.0725 11.9086C46.9074 11.4335 46.5981 11.0017 46.14 10.6523C45.3678 10.0888 44.3063 9.96913 43.4448 10.3682C41.8222 11.1577 41.4161 13.1563 42.4795 14.4869Z" fill="#7BC143"/>
<path d="M3.08064 53.9312C2.07911 53.9312 1.31212 53.648 0.779667 53.0817C0.259889 52.5153 0 51.7161 0 50.6841V43.5859C0 42.5539 0.259889 41.7547 0.779667 41.1884C1.31212 40.622 2.07911 40.3389 3.08064 40.3389C4.08216 40.3389 4.84281 40.622 5.36259 41.1884C5.89504 41.7547 6.16127 42.5539 6.16127 43.5859V44.9829H4.18358V43.4538C4.18358 42.6357 3.83495 42.2267 3.13768 42.2267C2.44042 42.2267 2.09179 42.6357 2.09179 43.4538V50.8352C2.09179 51.6406 2.44042 52.0434 3.13768 52.0434C3.83495 52.0434 4.18358 51.6406 4.18358 50.8352V48.8152H6.16127V50.6841C6.16127 51.7161 5.89504 52.5153 5.36259 53.0817C4.84281 53.648 4.08216 53.9312 3.08064 53.9312Z" fill="#616263"/>
<path d="M11.6145 53.9312C10.5876 53.9312 9.8016 53.6417 9.25647 53.0628C8.71133 52.4838 8.43877 51.6658 8.43877 50.6086V43.6614C8.43877 42.6043 8.71133 41.7862 9.25647 41.2073C9.8016 40.6283 10.5876 40.3389 11.6145 40.3389C12.6414 40.3389 13.4274 40.6283 13.9725 41.2073C14.5176 41.7862 14.7902 42.6043 14.7902 43.6614V50.6086C14.7902 51.6658 14.5176 52.4838 13.9725 53.0628C13.4274 53.6417 12.6414 53.9312 11.6145 53.9312ZM11.6145 52.0434C12.3371 52.0434 12.6984 51.6092 12.6984 50.7408V43.5293C12.6984 42.6609 12.3371 42.2267 11.6145 42.2267C10.8919 42.2267 10.5306 42.6609 10.5306 43.5293V50.7408C10.5306 51.6092 10.8919 52.0434 11.6145 52.0434Z" fill="#616263"/>
<path d="M20.3123 53.9312C19.2981 53.9312 18.5248 53.648 17.9924 53.0817C17.4599 52.5027 17.1937 51.6784 17.1937 50.6086V43.6614C17.1937 42.5917 17.4599 41.7736 17.9924 41.2073C18.5248 40.6283 19.2981 40.3389 20.3123 40.3389C21.3265 40.3389 22.0999 40.6283 22.6323 41.2073C23.1648 41.7736 23.431 42.5917 23.431 43.6614V44.7941H21.4533V43.5293C21.4533 42.6609 21.092 42.2267 20.3694 42.2267C19.6468 42.2267 19.2855 42.6609 19.2855 43.5293V50.7596C19.2855 51.6155 19.6468 52.0434 20.3694 52.0434C21.092 52.0434 21.4533 51.6155 21.4533 50.7596V48.1733H20.4074V46.2855H23.431V50.6086C23.431 51.6784 23.1648 52.5027 22.6323 53.0817C22.0999 53.648 21.3265 53.9312 20.3123 53.9312Z" fill="#616263"/>
<path d="M25.915 40.5276H28.5393L30.574 48.4376H30.612V40.5276H32.4756V53.7424H30.3268L27.8166 44.0956H27.7786V53.7424H25.915V40.5276Z" fill="#616263"/>
<path d="M35.1713 40.5276H37.2631V53.7424H35.1713V40.5276Z" fill="#616263"/>
<path d="M41.6061 42.4155H39.4192V40.5276H45.8848V42.4155H43.6979V53.7424H41.6061V42.4155Z" fill="#616263"/>
<path d="M48.0385 40.5276H50.1303V53.7424H48.0385V40.5276Z" fill="#616263"/>
<path d="M52.2864 40.5276H54.3972L55.7664 50.7785H55.8044L57.1736 40.5276H59.0942L57.0785 53.7424H54.3021L52.2864 40.5276Z" fill="#616263"/>
<path d="M61.24 40.5276H66.9448V42.4155H63.3318V45.9079H66.2032V47.7958H63.3318V51.8546H66.9448V53.7424H61.24V40.5276Z" fill="#616263"/>
<path d="M69.2892 40.5276H72.4459C73.5235 40.5276 74.3095 40.7794 74.8039 41.2828C75.2983 41.7736 75.5455 42.535 75.5455 43.567V44.0956C75.5455 44.7752 75.4314 45.329 75.2032 45.7569C74.9877 46.1848 74.6518 46.4932 74.1954 46.6819V46.7197C75.2349 47.0721 75.7547 47.9908 75.7547 49.4759V50.6086C75.7547 51.628 75.4822 52.4083 74.937 52.9495C74.4046 53.4781 73.6186 53.7424 72.579 53.7424H69.2892V40.5276ZM72.1987 45.9079C72.617 45.9079 72.9276 45.801 73.1305 45.587C73.346 45.3731 73.4537 45.0144 73.4537 44.511V43.7747C73.4537 43.2965 73.365 42.9504 73.1875 42.7364C73.0227 42.5224 72.7565 42.4155 72.3888 42.4155H71.381V45.9079H72.1987ZM72.579 51.8546C72.9467 51.8546 73.2192 51.7602 73.3967 51.5714C73.5742 51.37 73.6629 51.0302 73.6629 50.552V49.4004C73.6629 48.7963 73.5552 48.381 73.3396 48.1544C73.1368 47.9153 72.7945 47.7958 72.3128 47.7958H71.381V51.8546H72.579Z" fill="#7BC143"/>
<path d="M81.142 53.9312C80.1151 53.9312 79.3291 53.6417 78.784 53.0628C78.2388 52.4838 77.9663 51.6658 77.9663 50.6086V43.6614C77.9663 42.6043 78.2388 41.7862 78.784 41.2073C79.3291 40.6283 80.1151 40.3389 81.142 40.3389C82.1688 40.3389 82.9549 40.6283 83.5 41.2073C84.0451 41.7862 84.3177 42.6043 84.3177 43.6614V50.6086C84.3177 51.6658 84.0451 52.4838 83.5 53.0628C82.9549 53.6417 82.1688 53.9312 81.142 53.9312ZM81.142 52.0434C81.8646 52.0434 82.2259 51.6092 82.2259 50.7408V43.5293C82.2259 42.6609 81.8646 42.2267 81.142 42.2267C80.4194 42.2267 80.058 42.6609 80.058 43.5293V50.7408C80.058 51.6092 80.4194 52.0434 81.142 52.0434Z" fill="#7BC143"/>
<path d="M88.4344 42.4155H86.2475V40.5276H92.7131V42.4155H90.5262V53.7424H88.4344V42.4155Z" fill="#7BC143"/>
<path d="M94.8668 40.5276H96.9586V53.7424H94.8668V40.5276Z" fill="#7BC143"/>
<path d="M102.614 53.9312C101.612 53.9312 100.845 53.648 100.313 53.0817C99.793 52.5153 99.5331 51.7161 99.5331 50.6841V43.5859C99.5331 42.5539 99.793 41.7547 100.313 41.1884C100.845 40.622 101.612 40.3389 102.614 40.3389C103.615 40.3389 104.376 40.622 104.896 41.1884C105.428 41.7547 105.694 42.5539 105.694 43.5859V44.9829H103.717V43.4538C103.717 42.6357 103.368 42.2267 102.671 42.2267C101.973 42.2267 101.625 42.6357 101.625 43.4538V50.8352C101.625 51.6406 101.973 52.0434 102.671 52.0434C103.368 52.0434 103.717 51.6406 103.717 50.8352V48.8152H105.694V50.6841C105.694 51.7161 105.428 52.5153 104.896 53.0817C104.376 53.648 103.615 53.9312 102.614 53.9312Z" fill="#7BC143"/>
<path d="M110.843 53.9312C109.829 53.9312 109.062 53.648 108.542 53.0817C108.023 52.5027 107.763 51.6784 107.763 50.6086V49.8535H109.74V50.7596C109.74 51.6155 110.102 52.0434 110.824 52.0434C111.179 52.0434 111.445 51.9427 111.623 51.7413C111.813 51.5274 111.908 51.1875 111.908 50.7219C111.908 50.1681 111.781 49.6836 111.528 49.2683C111.274 48.8404 110.805 48.3306 110.121 47.7391C109.259 46.984 108.656 46.3044 108.314 45.7003C107.972 45.0836 107.801 44.3914 107.801 43.6237C107.801 42.5791 108.067 41.7736 108.599 41.2073C109.132 40.6283 109.905 40.3389 110.919 40.3389C111.921 40.3389 112.675 40.6283 113.182 41.2073C113.702 41.7736 113.962 42.5917 113.962 43.6614V44.2089H111.984V43.5293C111.984 43.0762 111.896 42.749 111.718 42.5476C111.541 42.3337 111.281 42.2267 110.938 42.2267C110.241 42.2267 109.892 42.6483 109.892 43.4915C109.892 43.9698 110.019 44.4166 110.273 44.8319C110.539 45.2472 111.014 45.7506 111.699 46.3421C112.574 47.0973 113.176 47.7832 113.506 48.3999C113.835 49.0166 114 49.7402 114 50.5709C114 51.6532 113.727 52.4838 113.182 53.0628C112.65 53.6417 111.87 53.9312 110.843 53.9312Z" fill="#7BC143"/>
<path d="M0.182397 61L1.98357 56.708H2.01777L3.81324 61H3.18055L1.83537 57.5744L2.22867 57.3179L0.723889 61H0.182397ZM1.23688 59.4382H2.77016L2.95256 59.917H1.07728L1.23688 59.4382ZM4.9314 58.6402L4.9827 59.3242L4.9542 59.233C5.015 59.0886 5.1024 58.967 5.2164 58.8682C5.3342 58.7656 5.4558 58.6877 5.5812 58.6345C5.71039 58.5775 5.82249 58.549 5.91749 58.549L5.88899 59.0734C5.71039 59.062 5.5527 59.0962 5.4159 59.176C5.2829 59.2558 5.1765 59.3622 5.0967 59.4952C5.0207 59.6282 4.9827 59.7707 4.9827 59.9227V61H4.45831V58.6402H4.9314ZM6.82934 57.6029H7.35943V58.6516H8.00922V59.0677H7.35943V61H6.82934V59.0677H6.39615V58.6516H6.82934V57.6029ZM8.64975 58.6402H9.17984V61H8.64975V58.6402ZM8.60985 57.7852C8.60985 57.7016 8.64215 57.6314 8.70675 57.5744C8.77515 57.5174 8.84925 57.4889 8.92905 57.4889C9.00885 57.4889 9.07915 57.5174 9.13994 57.5744C9.20454 57.6314 9.23684 57.7016 9.23684 57.7852C9.23684 57.8726 9.20454 57.9448 9.13994 58.0018C9.07915 58.055 9.00885 58.0816 8.92905 58.0816C8.84925 58.0816 8.77515 58.0531 8.70675 57.9961C8.64215 57.9391 8.60985 57.8688 8.60985 57.7852ZM10.2908 61V59.1133H9.8861V58.6402H10.2908V57.6428C10.2908 57.3008 10.3668 57.0386 10.5188 56.8562C10.6746 56.6738 10.9026 56.5826 11.2028 56.5826C11.2826 56.5826 11.37 56.594 11.465 56.6168C11.5638 56.6396 11.6493 56.6776 11.7215 56.7308L11.4992 57.1127C11.465 57.0785 11.427 57.0557 11.3852 57.0443C11.3472 57.0291 11.3054 57.0215 11.2598 57.0215C11.1192 57.0215 11.0109 57.069 10.9349 57.164C10.8589 57.259 10.8209 57.4205 10.8209 57.6485V58.6402H11.4935V59.1133H10.8209V61H10.2908ZM11.9495 58.6402H12.4796V61H11.9495V58.6402ZM11.9096 57.7852C11.9096 57.7016 11.9438 57.6333 12.0122 57.5801C12.0806 57.5231 12.1547 57.4946 12.2345 57.4946C12.3105 57.4946 12.3808 57.5231 12.4454 57.5801C12.51 57.6333 12.5423 57.7035 12.5423 57.7909C12.5423 57.8783 12.51 57.9505 12.4454 58.0075C12.3808 58.0607 12.3105 58.0873 12.2345 58.0873C12.1547 58.0873 12.0806 58.0588 12.0122 58.0018C11.9438 57.9448 11.9096 57.8726 11.9096 57.7852ZM15.3186 60.7834C15.2122 60.867 15.0849 60.9335 14.9367 60.9829C14.7885 61.0323 14.6403 61.057 14.4921 61.057C14.2337 61.057 14.0076 61.0057 13.8138 60.9031C13.62 60.8005 13.468 60.658 13.3578 60.4756C13.2514 60.2894 13.1982 60.0709 13.1982 59.8201C13.1982 59.5693 13.2552 59.3508 13.3692 59.1646C13.487 58.9784 13.639 58.8359 13.8252 58.7371C14.0152 58.6345 14.2185 58.5832 14.4351 58.5832C14.6251 58.5832 14.7942 58.6098 14.9424 58.663C15.0944 58.7162 15.2236 58.7884 15.33 58.8796L15.0678 59.2216C14.9994 59.1684 14.9158 59.1209 14.817 59.0791C14.7182 59.0373 14.6061 59.0164 14.4807 59.0164C14.3439 59.0164 14.2166 59.0525 14.0988 59.1247C13.9848 59.1931 13.8936 59.2881 13.8252 59.4097C13.7606 59.5313 13.7283 59.6681 13.7283 59.8201C13.7283 59.9645 13.7625 60.0994 13.8309 60.2248C13.8993 60.3464 13.9943 60.4433 14.1159 60.5155C14.2375 60.5839 14.3762 60.6181 14.532 60.6181C14.6346 60.6181 14.7277 60.6029 14.8113 60.5725C14.8987 60.5421 14.9766 60.5003 15.045 60.4471L15.3186 60.7834ZM16.0029 58.6402H16.533V61H16.0029V58.6402ZM15.963 57.7852C15.963 57.7016 15.9953 57.6314 16.0599 57.5744C16.1283 57.5174 16.2024 57.4889 16.2822 57.4889C16.362 57.4889 16.4323 57.5174 16.4931 57.5744C16.5577 57.6314 16.59 57.7016 16.59 57.7852C16.59 57.8726 16.5577 57.9448 16.4931 58.0018C16.4323 58.055 16.362 58.0816 16.2822 58.0816C16.2024 58.0816 16.1283 58.0531 16.0599 57.9961C15.9953 57.9391 15.963 57.8688 15.963 57.7852ZM18.4305 61.057C18.2101 61.057 18.0087 61.0095 17.8263 60.9145C17.6477 60.8195 17.5052 60.6808 17.3988 60.4984C17.2962 60.3122 17.2449 60.0861 17.2449 59.8201C17.2449 59.5579 17.3 59.3318 17.4102 59.1418C17.5204 58.948 17.6667 58.7998 17.8491 58.6972C18.0353 58.5946 18.2386 58.5433 18.459 58.5433C18.6794 58.5433 18.8656 58.5946 19.0176 58.6972C19.1696 58.796 19.2855 58.9138 19.3653 59.0506L19.3311 59.1418L19.3824 58.6402H19.8726V61H19.3425V60.3844L19.3995 60.5212C19.3843 60.5592 19.3501 60.6086 19.2969 60.6694C19.2475 60.7264 19.1791 60.7853 19.0917 60.8461C19.0081 60.9069 18.9112 60.9582 18.801 61C18.6908 61.038 18.5673 61.057 18.4305 61.057ZM18.573 60.6181C18.706 60.6181 18.8257 60.5934 18.9321 60.544C19.0385 60.4946 19.1259 60.4262 19.1943 60.3388C19.2665 60.2476 19.3159 60.1393 19.3425 60.0139V59.5522C19.3121 59.4382 19.2589 59.3394 19.1829 59.2558C19.1069 59.1684 19.0157 59.1019 18.9093 59.0563C18.8029 59.0069 18.6851 58.9822 18.5559 58.9822C18.4153 58.9822 18.2861 59.0164 18.1683 59.0848C18.0505 59.1532 17.9555 59.2482 17.8833 59.3698C17.8149 59.4914 17.7807 59.6339 17.7807 59.7973C17.7807 59.9493 17.8168 60.088 17.889 60.2134C17.9612 60.3388 18.0581 60.4376 18.1797 60.5098C18.3013 60.582 18.4324 60.6181 18.573 60.6181ZM20.7899 56.5883H21.32V61H20.7899V56.5883ZM24.1717 56.879H24.7246V61H24.1717V56.879ZM26.2504 58.6402L26.296 59.2159L26.2732 59.1247C26.3492 58.9499 26.4727 58.8112 26.6437 58.7086C26.8147 58.6022 27.0123 58.549 27.2365 58.549C27.4607 58.549 27.6431 58.6155 27.7837 58.7485C27.9281 58.8777 28.0022 59.0468 28.006 59.2558V61H27.4702V59.4439C27.4664 59.3147 27.4284 59.2102 27.3562 59.1304C27.2878 59.0468 27.1795 59.005 27.0313 59.005C26.8945 59.005 26.771 59.043 26.6608 59.119C26.5506 59.195 26.4632 59.2995 26.3986 59.4325C26.3378 59.5655 26.3074 59.7194 26.3074 59.8942V61H25.7773V58.6402H26.2504ZM29.1559 57.6029H29.686V58.6516H30.3357V59.0677H29.686V61H29.1559V59.0677H28.7227V58.6516H29.1559V57.6029ZM32.0707 61.057C31.8009 61.057 31.5691 61.0038 31.3753 60.8974C31.1815 60.7872 31.0314 60.639 30.925 60.4528C30.8224 60.2628 30.7711 60.0462 30.7711 59.803C30.7711 59.5712 30.83 59.3603 30.9478 59.1703C31.0656 58.9803 31.2233 58.8283 31.4209 58.7143C31.6185 58.6003 31.8389 58.5433 32.0821 58.5433C32.3936 58.5433 32.652 58.6345 32.8572 58.8169C33.0624 58.9993 33.2011 59.2501 33.2733 59.5693L31.3297 60.2533L31.2043 59.9398L32.8002 59.3584L32.6862 59.4325C32.6406 59.3071 32.5646 59.1988 32.4582 59.1076C32.3518 59.0126 32.2132 58.9651 32.0422 58.9651C31.8978 58.9651 31.7686 59.0012 31.6546 59.0734C31.5406 59.1418 31.4513 59.2368 31.3867 59.3584C31.3221 59.48 31.2898 59.6187 31.2898 59.7745C31.2898 59.9379 31.324 60.0823 31.3924 60.2077C31.4608 60.3293 31.5539 60.4262 31.6717 60.4984C31.7933 60.5668 31.9301 60.601 32.0821 60.601C32.1847 60.601 32.2834 60.582 32.3784 60.544C32.4772 60.506 32.5684 60.4566 32.652 60.3958L32.8971 60.7891C32.7793 60.8689 32.6463 60.9335 32.4981 60.9829C32.3537 61.0323 32.2113 61.057 32.0707 61.057ZM33.9376 56.5883H34.4676V61H33.9376V56.5883ZM35.3848 56.5883H35.9149V61H35.3848V56.5883ZM36.832 58.6402H37.3621V61H36.832V58.6402ZM36.7921 57.7852C36.7921 57.7016 36.8244 57.6314 36.889 57.5744C36.9574 57.5174 37.0315 57.4889 37.1113 57.4889C37.1911 57.4889 37.2614 57.5174 37.3222 57.5744C37.3868 57.6314 37.4191 57.7016 37.4191 57.7852C37.4191 57.8726 37.3868 57.9448 37.3222 58.0018C37.2614 58.055 37.1911 58.0816 37.1113 58.0816C37.0315 58.0816 36.9574 58.0531 36.889 57.9961C36.8244 57.9391 36.7921 57.8688 36.7921 57.7852ZM39.4136 62.1685C39.2388 62.1685 39.0849 62.1476 38.9519 62.1058C38.8189 62.0678 38.6973 62.0127 38.5871 61.9405C38.4807 61.8683 38.3781 61.7866 38.2793 61.6954L38.5871 61.3363C38.7125 61.4541 38.8398 61.5453 38.969 61.6099C39.0982 61.6745 39.2426 61.7068 39.4022 61.7068C39.5808 61.7068 39.7309 61.6764 39.8525 61.6156C39.9779 61.5586 40.0729 61.4769 40.1375 61.3705C40.2021 61.2679 40.2344 61.1482 40.2344 61.0114L40.2401 60.373L40.2857 60.4756C40.2173 60.639 40.0938 60.7777 39.9152 60.8917C39.7366 61.0019 39.52 61.057 39.2654 61.057C39.0488 61.057 38.8493 61.0019 38.6669 60.8917C38.4883 60.7815 38.3439 60.6333 38.2337 60.4471C38.1273 60.2571 38.0741 60.0443 38.0741 59.8087C38.0741 59.5617 38.1311 59.3451 38.2451 59.1589C38.3591 58.9689 38.5092 58.8188 38.6954 58.7086C38.8816 58.5984 39.0849 58.5433 39.3053 58.5433C39.5143 58.5433 39.7043 58.587 39.8753 58.6744C40.0501 58.758 40.1774 58.8663 40.2572 58.9993L40.2287 59.0962L40.2857 58.6402H40.7701V61.0171C40.7701 61.2299 40.715 61.4237 40.6048 61.5985C40.4946 61.7733 40.3389 61.912 40.1375 62.0146C39.9361 62.1172 39.6948 62.1685 39.4136 62.1685ZM38.6042 59.7973C38.6042 59.9493 38.6403 60.088 38.7125 60.2134C38.7847 60.3388 38.8816 60.4376 39.0032 60.5098C39.1286 60.582 39.2673 60.6181 39.4193 60.6181C39.5599 60.6181 39.6853 60.5934 39.7955 60.544C39.9095 60.4908 40.0045 60.4205 40.0805 60.3331C40.1565 60.2419 40.2097 60.1374 40.2401 60.0196V59.5522C40.2059 59.4382 40.1489 59.3394 40.0691 59.2558C39.9893 59.1684 39.8943 59.1019 39.7841 59.0563C39.6739 59.0069 39.5523 58.9822 39.4193 58.9822C39.2673 58.9822 39.1286 59.0164 39.0032 59.0848C38.8816 59.1532 38.7847 59.2501 38.7125 59.3755C38.6403 59.4971 38.6042 59.6377 38.6042 59.7973ZM42.7803 61.057C42.5105 61.057 42.2787 61.0038 42.0849 60.8974C41.8911 60.7872 41.741 60.639 41.6346 60.4528C41.532 60.2628 41.4807 60.0462 41.4807 59.803C41.4807 59.5712 41.5396 59.3603 41.6574 59.1703C41.7752 58.9803 41.9329 58.8283 42.1305 58.7143C42.3281 58.6003 42.5485 58.5433 42.7917 58.5433C43.1032 58.5433 43.3616 58.6345 43.5668 58.8169C43.772 58.9993 43.9107 59.2501 43.9829 59.5693L42.0393 60.2533L41.9139 59.9398L43.5098 59.3584L43.3958 59.4325C43.3502 59.3071 43.2742 59.1988 43.1678 59.1076C43.0615 59.0126 42.9228 58.9651 42.7518 58.9651C42.6074 58.9651 42.4782 59.0012 42.3642 59.0734C42.2502 59.1418 42.1609 59.2368 42.0963 59.3584C42.0317 59.48 41.9994 59.6187 41.9994 59.7745C41.9994 59.9379 42.0336 60.0823 42.102 60.2077C42.1704 60.3293 42.2635 60.4262 42.3813 60.4984C42.5029 60.5668 42.6397 60.601 42.7917 60.601C42.8943 60.601 42.9931 60.582 43.0881 60.544C43.1868 60.506 43.278 60.4566 43.3616 60.3958L43.6067 60.7891C43.4889 60.8689 43.3559 60.9335 43.2077 60.9829C43.0634 61.0323 42.9209 61.057 42.7803 61.057ZM45.1202 58.6402L45.1658 59.2159L45.143 59.1247C45.219 58.9499 45.3425 58.8112 45.5135 58.7086C45.6845 58.6022 45.8821 58.549 46.1063 58.549C46.3305 58.549 46.5129 58.6155 46.6535 58.7485C46.7979 58.8777 46.872 59.0468 46.8758 59.2558V61H46.34V59.4439C46.3362 59.3147 46.2982 59.2102 46.226 59.1304C46.1576 59.0468 46.0493 59.005 45.9011 59.005C45.7643 59.005 45.6408 59.043 45.5306 59.119C45.4204 59.195 45.333 59.2995 45.2684 59.4325C45.2076 59.5655 45.1772 59.7194 45.1772 59.8942V61H44.6472V58.6402H45.1202ZM49.7129 60.7834C49.6065 60.867 49.4792 60.9335 49.331 60.9829C49.1828 61.0323 49.0346 61.057 48.8864 61.057C48.628 61.057 48.4019 61.0057 48.2081 60.9031C48.0143 60.8005 47.8623 60.658 47.7521 60.4756C47.6457 60.2894 47.5925 60.0709 47.5925 59.8201C47.5925 59.5693 47.6495 59.3508 47.7635 59.1646C47.8813 58.9784 48.0333 58.8359 48.2195 58.7371C48.4095 58.6345 48.6128 58.5832 48.8294 58.5832C49.0194 58.5832 49.1885 58.6098 49.3367 58.663C49.4887 58.7162 49.6179 58.7884 49.7243 58.8796L49.4621 59.2216C49.3937 59.1684 49.3101 59.1209 49.2113 59.0791C49.1125 59.0373 49.0004 59.0164 48.875 59.0164C48.7382 59.0164 48.6109 59.0525 48.4931 59.1247C48.3791 59.1931 48.2879 59.2881 48.2195 59.4097C48.1549 59.5313 48.1226 59.6681 48.1226 59.8201C48.1226 59.9645 48.1568 60.0994 48.2252 60.2248C48.2936 60.3464 48.3886 60.4433 48.5102 60.5155C48.6318 60.5839 48.7705 60.6181 48.9263 60.6181C49.0289 60.6181 49.122 60.6029 49.2056 60.5725C49.293 60.5421 49.3709 60.5003 49.4393 60.4471L49.7129 60.7834ZM51.4916 61.057C51.2218 61.057 50.99 61.0038 50.7962 60.8974C50.6024 60.7872 50.4523 60.639 50.3459 60.4528C50.2433 60.2628 50.192 60.0462 50.192 59.803C50.192 59.5712 50.2509 59.3603 50.3687 59.1703C50.4865 58.9803 50.6442 58.8283 50.8418 58.7143C51.0394 58.6003 51.2598 58.5433 51.503 58.5433C51.8145 58.5433 52.0729 58.6345 52.2781 58.8169C52.4833 58.9993 52.622 59.2501 52.6942 59.5693L50.7506 60.2533L50.6252 59.9398L52.2211 59.3584L52.1071 59.4325C52.0615 59.3071 51.9855 59.1988 51.8791 59.1076C51.7727 59.0126 51.634 58.9651 51.4631 58.9651C51.3187 58.9651 51.1895 59.0012 51.0755 59.0734C50.9615 59.1418 50.8722 59.2368 50.8076 59.3584C50.743 59.48 50.7107 59.6187 50.7107 59.7745C50.7107 59.9379 50.7449 60.0823 50.8133 60.2077C50.8817 60.3293 50.9748 60.4262 51.0926 60.4984C51.2142 60.5668 51.351 60.601 51.503 60.601C51.6055 60.601 51.7043 60.582 51.7993 60.544C51.8981 60.506 51.9893 60.4566 52.0729 60.3958L52.318 60.7891C52.2002 60.8689 52.0672 60.9335 51.919 60.9829C51.7746 61.0323 51.6321 61.057 51.4916 61.057ZM55.3557 61V59.1133H54.951V58.6402H55.3557V57.6428C55.3557 57.3008 55.4317 57.0386 55.5837 56.8562C55.7395 56.6738 55.9675 56.5826 56.2677 56.5826C56.3475 56.5826 56.4349 56.594 56.5299 56.6168C56.6287 56.6396 56.7142 56.6776 56.7864 56.7308L56.5641 57.1127C56.5299 57.0785 56.4919 57.0557 56.4501 57.0443C56.4083 57.0291 56.3665 57.0215 56.3247 57.0215C56.1841 57.0215 56.0758 57.069 55.9998 57.164C55.9238 57.259 55.8858 57.4205 55.8858 57.6485V58.6402H56.6325V59.1133H55.8858V61H55.3557ZM56.9884 59.7973C56.9884 59.5617 57.0435 59.3489 57.1537 59.1589C57.2677 58.9689 57.4235 58.8188 57.6211 58.7086C57.8187 58.5984 58.0429 58.5433 58.2937 58.5433C58.5521 58.5433 58.7782 58.5984 58.972 58.7086C59.1658 58.8188 59.3159 58.9689 59.4223 59.1589C59.5287 59.3489 59.5819 59.5617 59.5819 59.7973C59.5819 60.0329 59.5287 60.2476 59.4223 60.4414C59.3159 60.6314 59.1639 60.7815 58.9663 60.8917C58.7725 61.0019 58.5464 61.057 58.288 61.057C58.0372 61.057 57.813 61.0057 57.6154 60.9031C57.4216 60.7967 57.2677 60.6504 57.1537 60.4642C57.0435 60.2742 56.9884 60.0519 56.9884 59.7973ZM57.5185 59.803C57.5185 59.955 57.5527 60.0937 57.6211 60.2191C57.6895 60.3407 57.7807 60.4376 57.8947 60.5098C58.0125 60.582 58.1417 60.6181 58.2823 60.6181C58.4305 60.6181 58.5616 60.582 58.6756 60.5098C58.7934 60.4376 58.8846 60.3407 58.9492 60.2191C59.0138 60.0937 59.0461 59.955 59.0461 59.803C59.0461 59.651 59.0138 59.5142 58.9492 59.3926C58.8846 59.2672 58.7934 59.1684 58.6756 59.0962C58.5616 59.0202 58.4305 58.9822 58.2823 58.9822C58.1379 58.9822 58.0068 59.0202 57.889 59.0962C57.775 59.1722 57.6838 59.2729 57.6154 59.3983C57.5508 59.5199 57.5185 59.6548 57.5185 59.803ZM60.7727 58.6402L60.824 59.3242L60.7955 59.233C60.8563 59.0886 60.9437 58.967 61.0577 58.8682C61.1755 58.7656 61.2971 58.6877 61.4225 58.6345C61.5517 58.5775 61.6638 58.549 61.7588 58.549L61.7303 59.0734C61.5517 59.062 61.394 59.0962 61.2572 59.176C61.1242 59.2558 61.0178 59.3622 60.938 59.4952C60.862 59.6282 60.824 59.7707 60.824 59.9227V61H60.2997V58.6402H60.7727ZM63.9669 61L65.7681 56.708H65.8023L67.5977 61H66.965L65.6199 57.5744L66.0131 57.3179L64.5084 61H63.9669ZM65.0214 59.4382H66.5546L66.737 59.917H64.8618L65.0214 59.4382ZM68.9895 61.0912C68.7767 61.0912 68.6 61.0266 68.4594 60.8974C68.3226 60.7644 68.2504 60.5934 68.2428 60.3844V58.6402H68.7729V60.1963C68.7805 60.3255 68.8166 60.43 68.8812 60.5098C68.9496 60.5896 69.056 60.6314 69.2004 60.6352C69.3334 60.6352 69.4512 60.5972 69.5538 60.5212C69.6602 60.4414 69.7457 60.335 69.8103 60.202C69.8749 60.0652 69.9072 59.9113 69.9072 59.7403V58.6402H70.4373V61H69.9528L69.9072 60.4186L69.9357 60.5212C69.8901 60.6314 69.8198 60.7302 69.7248 60.8176C69.6336 60.9012 69.5253 60.9677 69.3999 61.0171C69.2745 61.0665 69.1377 61.0912 68.9895 61.0912ZM71.5824 57.6029H72.1125V58.6516H72.7622V59.0677H72.1125V61H71.5824V59.0677H71.1492V58.6516H71.5824V57.6029ZM73.4028 58.6402H73.9329V61H73.4028V58.6402ZM73.3629 57.7852C73.3629 57.7016 73.3952 57.6314 73.4598 57.5744C73.5282 57.5174 73.6023 57.4889 73.6821 57.4889C73.7619 57.4889 73.8322 57.5174 73.893 57.5744C73.9576 57.6314 73.9899 57.7016 73.9899 57.7852C73.9899 57.8726 73.9576 57.9448 73.893 58.0018C73.8322 58.055 73.7619 58.0816 73.6821 58.0816C73.6023 58.0816 73.5282 58.0531 73.4598 57.9961C73.3952 57.9391 73.3629 57.8688 73.3629 57.7852ZM75.5112 61.0456C75.344 61.0456 75.1806 61.0171 75.021 60.9601C74.8652 60.8993 74.736 60.81 74.6334 60.6922L74.8557 60.3844C74.9545 60.4794 75.0552 60.5516 75.1578 60.601C75.2642 60.6466 75.3687 60.6694 75.4713 60.6694C75.5473 60.6694 75.6176 60.6599 75.6822 60.6409C75.7468 60.6219 75.7981 60.5915 75.8361 60.5497C75.8779 60.5041 75.8988 60.4433 75.8988 60.3673C75.8988 60.2837 75.8703 60.2172 75.8133 60.1678C75.7601 60.1184 75.6898 60.0785 75.6024 60.0481C75.5188 60.0177 75.4295 59.9892 75.3345 59.9626C75.1407 59.898 74.9925 59.8087 74.8899 59.6947C74.7873 59.5807 74.736 59.442 74.736 59.2786C74.736 59.1532 74.7664 59.0373 74.8272 58.9309C74.8918 58.8207 74.9849 58.7314 75.1065 58.663C75.2319 58.5946 75.3858 58.5604 75.5682 58.5604C75.7316 58.5604 75.8779 58.5813 76.0071 58.6231C76.1363 58.6611 76.2579 58.7257 76.3719 58.8169L76.161 59.1475C76.0926 59.0753 76.0109 59.0221 75.9159 58.9879C75.8209 58.9537 75.7354 58.9347 75.6594 58.9309C75.5948 58.9271 75.5321 58.9366 75.4713 58.9594C75.4143 58.9822 75.3668 59.0145 75.3288 59.0563C75.2908 59.0981 75.2718 59.1475 75.2718 59.2045C75.2718 59.2843 75.2984 59.3489 75.3516 59.3983C75.4048 59.4477 75.4732 59.4876 75.5568 59.518C75.6442 59.5446 75.7297 59.5731 75.8133 59.6035C75.9311 59.6377 76.0356 59.6833 76.1268 59.7403C76.218 59.7973 76.2902 59.8676 76.3434 59.9512C76.4004 60.0348 76.4289 60.1393 76.4289 60.2647C76.4289 60.4053 76.3947 60.5364 76.3263 60.658C76.2617 60.7758 76.161 60.8708 76.0242 60.943C75.8912 61.0114 75.7202 61.0456 75.5112 61.0456ZM77.6443 58.6402L77.6899 59.1703L77.6671 59.1247C77.7545 58.9461 77.878 58.8055 78.0376 58.7029C78.201 58.6003 78.3872 58.549 78.5962 58.549C78.7291 58.549 78.8469 58.5699 78.9495 58.6117C79.0521 58.6535 79.1357 58.7143 79.2003 58.7941C79.2687 58.8701 79.3124 58.9651 79.3314 59.0791L79.3029 59.0962C79.3941 58.9252 79.5195 58.7922 79.6791 58.6972C79.8425 58.5984 80.0135 58.549 80.1921 58.549C80.4239 58.549 80.6063 58.6155 80.7393 58.7485C80.8761 58.8777 80.9464 59.0468 80.9502 59.2558V61H80.4201V59.4439C80.4163 59.3223 80.3859 59.2216 80.3289 59.1418C80.2757 59.0582 80.1807 59.0126 80.0439 59.005C79.9071 59.005 79.7836 59.0468 79.6734 59.1304C79.567 59.214 79.4834 59.3223 79.4226 59.4553C79.3618 59.5845 79.3295 59.7251 79.3257 59.8771V61H78.7956V59.4439C78.7918 59.3223 78.7595 59.2216 78.6988 59.1418C78.6418 59.0582 78.5449 59.0126 78.4081 59.005C78.2675 59.005 78.144 59.0468 78.0376 59.1304C77.9312 59.214 77.8476 59.3223 77.7868 59.4553C77.7298 59.5883 77.7013 59.7308 77.7013 59.8828V61H77.1712V58.6402H77.6443ZM83.8093 56.879H84.3622V61H83.8093V56.879ZM85.888 58.6402L85.9336 59.2159L85.9108 59.1247C85.9868 58.9499 86.1103 58.8112 86.2813 58.7086C86.4523 58.6022 86.6499 58.549 86.8741 58.549C87.0983 58.549 87.2807 58.6155 87.4213 58.7485C87.5657 58.8777 87.6398 59.0468 87.6436 59.2558V61H87.1078V59.4439C87.104 59.3147 87.066 59.2102 86.9938 59.1304C86.9254 59.0468 86.8171 59.005 86.6689 59.005C86.5321 59.005 86.4086 59.043 86.2984 59.119C86.1882 59.195 86.1008 59.2995 86.0362 59.4325C85.9754 59.5655 85.945 59.7194 85.945 59.8942V61H85.4149V58.6402H85.888ZM88.7934 57.6029H89.3235V58.6516H89.9733V59.0677H89.3235V61H88.7934V59.0677H88.3602V58.6516H88.7934V57.6029ZM91.7082 61.057C91.4384 61.057 91.2066 61.0038 91.0128 60.8974C90.819 60.7872 90.6689 60.639 90.5625 60.4528C90.4599 60.2628 90.4086 60.0462 90.4086 59.803C90.4086 59.5712 90.4675 59.3603 90.5853 59.1703C90.7031 58.9803 90.8608 58.8283 91.0584 58.7143C91.256 58.6003 91.4764 58.5433 91.7196 58.5433C92.0312 58.5433 92.2896 58.6345 92.4948 58.8169C92.7 58.9993 92.8387 59.2501 92.9109 59.5693L90.9672 60.2533L90.8418 59.9398L92.4378 59.3584L92.3238 59.4325C92.2782 59.3071 92.2022 59.1988 92.0958 59.1076C91.9894 59.0126 91.8507 58.9651 91.6797 58.9651C91.5353 58.9651 91.4061 59.0012 91.2921 59.0734C91.1781 59.1418 91.0888 59.2368 91.0242 59.3584C90.9596 59.48 90.9273 59.6187 90.9273 59.7745C90.9273 59.9379 90.9615 60.0823 91.0299 60.2077C91.0983 60.3293 91.1914 60.4262 91.3092 60.4984C91.4308 60.5668 91.5676 60.601 91.7196 60.601C91.8222 60.601 91.921 60.582 92.016 60.544C92.1148 60.506 92.206 60.4566 92.2896 60.3958L92.5347 60.7891C92.4169 60.8689 92.2839 60.9335 92.1357 60.9829C91.9913 61.0323 91.8488 61.057 91.7082 61.057ZM94.0482 58.6402L94.0995 59.3242L94.071 59.233C94.1318 59.0886 94.2192 58.967 94.3332 58.8682C94.451 58.7656 94.5726 58.6877 94.698 58.6345C94.8272 58.5775 94.9393 58.549 95.0343 58.549L95.0058 59.0734C94.8272 59.062 94.6695 59.0962 94.5327 59.176C94.3997 59.2558 94.2933 59.3622 94.2135 59.4952C94.1375 59.6282 94.0995 59.7707 94.0995 59.9227V61H93.5751V58.6402H94.0482ZM96.6757 61.0684L95.3648 58.6402H95.9918L96.8809 60.5155L96.556 60.5041L97.3711 58.6402H97.9639L96.7042 61.0684H96.6757ZM99.5734 61.057C99.3036 61.057 99.0718 61.0038 98.8781 60.8974C98.6843 60.7872 98.5342 60.639 98.4278 60.4528C98.3252 60.2628 98.2739 60.0462 98.2739 59.803C98.2739 59.5712 98.3328 59.3603 98.4506 59.1703C98.5684 58.9803 98.7261 58.8283 98.9237 58.7143C99.1212 58.6003 99.3416 58.5433 99.5848 58.5433C99.8964 58.5433 100.155 58.6345 100.36 58.8169C100.565 58.9993 100.704 59.2501 100.776 59.5693L98.8325 60.2533L98.7071 59.9398L100.303 59.3584L100.189 59.4325C100.143 59.3071 100.067 59.1988 99.961 59.1076C99.8546 59.0126 99.7159 58.9651 99.5449 58.9651C99.4005 58.9651 99.2713 59.0012 99.1573 59.0734C99.0433 59.1418 98.9541 59.2368 98.8895 59.3584C98.8249 59.48 98.7926 59.6187 98.7926 59.7745C98.7926 59.9379 98.8268 60.0823 98.8952 60.2077C98.9636 60.3293 99.0566 60.4262 99.1744 60.4984C99.296 60.5668 99.4328 60.601 99.5848 60.601C99.6874 60.601 99.7862 60.582 99.8812 60.544C99.98 60.506 100.071 60.4566 100.155 60.3958L100.4 60.7891C100.282 60.8689 100.149 60.9335 100.001 60.9829C99.8565 61.0323 99.714 61.057 99.5734 61.057ZM101.913 58.6402L101.959 59.2159L101.936 59.1247C102.012 58.9499 102.136 58.8112 102.307 58.7086C102.478 58.6022 102.675 58.549 102.9 58.549C103.124 58.549 103.306 58.6155 103.447 58.7485C103.591 58.8777 103.665 59.0468 103.669 59.2558V61H103.133V59.4439C103.129 59.3147 103.091 59.2102 103.019 59.1304C102.951 59.0468 102.843 59.005 102.694 59.005C102.558 59.005 102.434 59.043 102.324 59.119C102.214 59.195 102.126 59.2995 102.062 59.4325C102.001 59.5655 101.97 59.7194 101.97 59.8942V61H101.44V58.6402H101.913ZM104.819 57.6029H105.349V58.6516H105.999V59.0677H105.349V61H104.819V59.0677H104.386V58.6516H104.819V57.6029ZM106.639 58.6402H107.169V61H106.639V58.6402ZM106.599 57.7852C106.599 57.7016 106.632 57.6314 106.696 57.5744C106.765 57.5174 106.839 57.4889 106.919 57.4889C106.998 57.4889 107.069 57.5174 107.129 57.5744C107.194 57.6314 107.226 57.7016 107.226 57.7852C107.226 57.8726 107.194 57.9448 107.129 58.0018C107.069 58.055 106.998 58.0816 106.919 58.0816C106.839 58.0816 106.765 58.0531 106.696 57.9961C106.632 57.9391 106.599 57.8688 106.599 57.7852ZM107.881 59.7973C107.881 59.5617 107.936 59.3489 108.047 59.1589C108.161 58.9689 108.316 58.8188 108.514 58.7086C108.712 58.5984 108.936 58.5433 109.187 58.5433C109.445 58.5433 109.671 58.5984 109.865 58.7086C110.059 58.8188 110.209 58.9689 110.315 59.1589C110.422 59.3489 110.475 59.5617 110.475 59.7973C110.475 60.0329 110.422 60.2476 110.315 60.4414C110.209 60.6314 110.057 60.7815 109.859 60.8917C109.665 61.0019 109.439 61.057 109.181 61.057C108.93 61.057 108.706 61.0057 108.508 60.9031C108.315 60.7967 108.161 60.6504 108.047 60.4642C107.936 60.2742 107.881 60.0519 107.881 59.7973ZM108.411 59.803C108.411 59.955 108.446 60.0937 108.514 60.2191C108.582 60.3407 108.674 60.4376 108.788 60.5098C108.905 60.582 109.035 60.6181 109.175 60.6181C109.323 60.6181 109.455 60.582 109.569 60.5098C109.686 60.4376 109.777 60.3407 109.842 60.2191C109.907 60.0937 109.939 59.955 109.939 59.803C109.939 59.651 109.907 59.5142 109.842 59.3926C109.777 59.2672 109.686 59.1684 109.569 59.0962C109.455 59.0202 109.323 58.9822 109.175 58.9822C109.031 58.9822 108.9 59.0202 108.782 59.0962C108.668 59.1722 108.577 59.2729 108.508 59.3983C108.444 59.5199 108.411 59.6548 108.411 59.803ZM111.666 58.6402L111.711 59.2159L111.688 59.1247C111.764 58.9499 111.888 58.8112 112.059 58.7086C112.23 58.6022 112.428 58.549 112.652 58.549C112.876 58.549 113.058 58.6155 113.199 58.7485C113.343 58.8777 113.417 59.0468 113.421 59.2558V61H112.885V59.4439C112.882 59.3147 112.844 59.2102 112.771 59.1304C112.703 59.0468 112.595 59.005 112.447 59.005C112.31 59.005 112.186 59.043 112.076 59.119C111.966 59.195 111.878 59.2995 111.814 59.4325C111.753 59.5655 111.723 59.7194 111.723 59.8942V61H111.193V58.6402H111.666Z" fill="#616263"/>
</svg>
